<?xml version="1.0" standalone="no"?>
<!DOCTYPE svg PUBLIC "-//W3C//DTD SVG 1.1//EN" "http://www.w3.org/Graphics/SVG/1.1/DTD/svg11.dtd">
<svg viewBox="0 0 1024 1024" version="1.1"
  xmlns="http://www.w3.org/2000/svg" p-id="15749"
  xmlns:xlink="http://www.w3.org/1999/xlink" width="200" height="200">
  <defs
    xmlns="http://www.w3.org/2000/svg">
    <linearGradient x1="62.1023273%" y1="0%" x2="108.19718%" y2="37.8635764%" id="linearGradient-1">
      <stop stop-color="#4285EB" offset="0%"/>
      <stop stop-color="#2EC7FF" offset="100%"/>
    </linearGradient>
    <linearGradient x1="69.644116%" y1="0%" x2="54.0428975%" y2="108.456714%" id="linearGradient-2">
      <stop stop-color="#29CDFF" offset="0%"/>
      <stop stop-color="#148EFF" offset="37.8600687%"/>
      <stop stop-color="#0A60FF" offset="100%"/>
    </linearGradient>
    <linearGradient x1="69.6908165%" y1="-12.9743587%" x2="16.7228981%" y2="117.391248%" id="linearGradient-3">
      <stop stop-color="#FA816E" offset="0%"/>
      <stop stop-color="#F74A5C" offset="41.472606%"/>
      <stop stop-color="#F51D2C" offset="100%"/>
    </linearGradient>
    <linearGradient x1="68.1279872%" y1="-35.6905737%" x2="30.4400914%" y2="114.942679%" id="linearGradient-4">
      <stop stop-color="#FA8E7D" offset="0%"/>
      <stop stop-color="#F74A5C" offset="51.2635191%"/>
      <stop stop-color="#F51D2C" offset="100%"/>
    </linearGradient>
  </defs>
  <path p-id="15750" fill="url(#linearGradient-2)" d="M445.058237 180.160373c35.541748 6.804132 70.60828 15.157188 103.925064 29.916707 15.982353 7.070571 33.324738 7.702866 50.595542 6.40845 13.304047-1.004117 23.168249-6.32494 29.355992-19.517639 10.289709-21.931495 22.187992-33.235262 40.462913-40.353553-4.738237 6.859806-7.957375 11.413126-11.065165 16.036039-8.518089 12.622043-16.881087 25.104901-21.688917 40.009569-9.22793 28.594454-23.052924 34.794128-57.823192 26.991845 7.545786 10.466672 13.007783 20.718602 11.146687 33.263099-0.676039 4.67461 2.69819 7.160047 6.193709 9.752854 12.256186 9.140443 24.480559 18.338548 36.311239 28.011868 13.236443 10.822586 11.675588 34.732489-2.859247 44.350136-18.807798 12.453033-37.872093 24.530268-59.16334 38.255845 46.040233 17.499464 89.742167 34.054462 133.402346 50.712854 28.489072 10.874283 57.073584 21.56365 85.300194 33.050346 11.262012 4.583146 22.776544 3.600901 34.24932 4.410159 37.170206 2.616668 73.678291 8.681134 108.178144 23.219946 21.531837 9.078804 40.759177 21.384699 52.727052 43.085546 5.935223 10.749017 13.304047 21.040715 26.928217 24.663487 5.800016 1.540971 10.788784 7.273383 8.496217 14.075526-2.378066 7.084489-8.883946 6.030664-15.185025 5.022571-19.970983-3.225103-33.750245-14.055643-42.186812-32.243076-3.509437-7.52988-7.160047-15.021981-11.419091-22.134307-10.749017-17.930936-25.365375-28.618315-47.762144-27.234423-17.137584 1.061779-34.37061-0.172986-51.577786-0.304217-5.076256-0.033802-11.403184-0.248544-13.101235 5.213452-1.743783 5.599192 3.785817 9.249802 8.024979 11.671612 24.931915 14.250501 28.083449 36.29732 24.500443 62.151829-3.604878 25.790882-3.835526 51.87405-0.272404 77.822012 3.129662 22.836194 13.677856 38.778781 38.45468 42.403542 15.049817 2.203091 24.116691 10.39708 27.950229 26.351596 9.884085 41.186672 29.787464 78.466237 48.237359 116.217041 3.624761 7.410579 6.957235 14.642206 0.676039 21.897693-7.388707 8.537973-17.746019 16.165282-27.582384 16.692194-7.090454 0.399658-14.258454-11.804831-13.852831-21.382711 1.656295-41.469017-20.376606-74.159472-38.395029-108.490315-2.44567-4.664668-5.7344-5.652878-9.81847-6.016746-11.558276-1.020023-23.10661-1.994315-34.694711-2.48146-9.740924-0.411588-19.511674-0.248544-29.280435-0.065616-27.023658 0.520948-47.129849-9.810517-59.143456-35.136124-7.118291-15.029934-16.097678-29.173064-24.160435-43.755619-1.974431-3.608854-2.813515-7.098408-8.979386-5.678726-14.868878 3.441833-29.962439 6.106221-45.087814 8.18007-7.997142 1.095581-8.681134 5.56539-7.340986 11.49266 3.08393 13.57645 6.253359 27.001786 19.632963 35.195775 4.982804 3.070012 9.112606 7.897724 12.892458 12.52859 11.335581 13.892598 9.546066 28.157017-6.052536 37.313367-28.691883 16.873134-53.808715 37.860163-75.819744 62.631021-3.42195 3.865351-6.464124 4.503612-10.790773 3.732132-10.838493-1.920746-21.667045-3.799736-33.980893-5.96306 29.511083-27.170796 61.388303-50.408637 87.294509-81.506423-35.136124-11.588101-72.495223-17.881227-81.196241-62.07826-36.337087 10.939899-72.284458 10.872295-107.603511-3.419961-5.010641-2.042035-7.340986-0.473227-10.289709 3.189313-31.193227 38.55012-63.036645 76.597188-90.213406 118.183518-12.31186 18.82967-15.19099 41.482936-24.094819 61.760124-7.301219 16.556986-14.103363 33.181577-26.136854 47.135814-3.901142 4.521507-8.295394 7.002967-13.920435 8.289429-10.067014 2.270695-20.309002 2.195138-27.063425-5.990897-7.233616-8.762656-1.157219-17.984621 3.825584-25.500583 18.680544-28.10532 38.697258-55.329802 54.566276-85.238555 28.23854-53.222151 49.684878-108.462478 53.017351-169.546563 0.540831-9.979526-1.791503-12.763216-12.196536-14.332023-17.382151-2.628598-32.978765-3.185336-45.857305 10.912062-3.467682 3.811666-6.754423 4.149685-9.492381-1.081662-7.321103-13.900551-16.549033-27.206586-18.79388-42.956303-1.743783-12.210454-9.858237-17.604847-19.086167-21.472186-9.546066-3.990617-19.539511-2.604738-26.773126 5.805981-31.071938 36.150183-62.036505 72.157204-73.055938 120.80814-5.509717 24.255876-11.695472 48.527658-21.987169 71.48713-5.5296 12.385429-13.824994 20.362687-27.292085 23.092691-5.463984 1.109499-10.904109 3.690377-15.799425-0.594517-6.002827-5.279068-2.290579-11.500614-0.087487-16.712078 22.052784-51.895922 41.409367-104.939122 67.681429-155.02167 22.917717-43.727783 34.682781-90.348614 34.865709-140.013608 0.155091-43.59854 9.402905-85.359845 27.90052-125.118882 12.602159-27.113134 36.696979-43.799363 56.214617-64.65715 9.903969-10.587961 20.221515-20.798136 30.328295-31.187262C392.762656 237.204132 427.371868 218.306858 445.058237 180.160373z"></path>
  <path p-id="15751" fill="url(#linearGradient-3)" d="M445.058237 180.160373c-17.686369 38.148474-52.293592 57.043759-86.686074 76.207472-9.740924-0.612412-17.610812 5.231348-26.156738 8.243697-29.421608 10.359301-60.954843 12.462975-90.125918 23.162283-40.003604 14.676008-79.579713 30.554967-119.406353 45.732039-23.987449 9.140443-38.015254 28.803231-52.138501 48.473973-8.140303 11.369383-17.976668 18.614928-33.046369 14.72174-6.416404-1.652318-13.238431-3.501483-17.390105-8.184047-5.346672-6.008792 2.994454-10.29965 4.672621-15.519068 4.509577-14.133188-1.906827-23.09468-12.582276-30.658361-13.148955-9.339278-13.236443-9.474485-0.318136-19.744311 44.539029-35.40654 95.136559-58.803449 149.356862-74.972707 55.783146-16.634532 113.90459-20.69673 170.775363-31.555107 20.674858-3.944885 41.93628-6.567518 60.433895-18.084039 12.872575-0.996163 19.87753-10.824575 27.514781-19.133887 4.577181-4.978827 7.072559-11.872435 13.805111-14.920575C439.703612 167.822664 445.511581 171.825212 445.058237 180.160373z"></path>
  <path p-id="15752" fill="url(#linearGradient-4)" d="M383.21659 179.961538c-32.255006 6.60132-64.74066 10.816621-97.765157 9.100676-8.315278-0.437437-16.658392-0.916629-24.933903-1.87899-21.830089-2.529181-21.830089-2.636551-25.568186-23.983472-0.222695-1.365996 0.115324-3.350369-0.676039-4.012489-19.61308-16.330315-7.233616-36.43054-6.666936-55.12699 0.067604-1.835247 0.019883-3.670493 0.019883-6.901561 11.83068 8.836225 17.117701 21.871845 27.677825 30.735907 36.539899 30.73193 78.40261 39.753072 124.558167 35.126183 4.008513-0.401647 9.200093-4.461856 11.580148 2.69819C388.700458 170.461204 385.962501 175.211371 383.21659 179.961538z"></path>
  <path p-id="15753" fill="url(#linearGradient-1)" d="M383.21659 179.961538c2.743922-4.750167 5.48188-9.498346 8.22779-14.244536 16.415814-19.241258 34.181717-35.521864 60.501499-41.359658 16.543068-3.670493 29.874951-16.059899 45.674377-25.25005-0.296264 9.394951-6.165872 15.224792-10.951829 21.092412-11.486695 14.085468-24.365235 26.532536-41.997918 33.239239-4.46981 1.706004-11.627868 2.553041-10.904109 10.488544-6.73454 3.04814-9.22793 9.941748-13.805111 14.920575-7.639239 8.309313-14.642206 18.135736-27.514781 19.133887C388.092023 192.627324 384.03579 187.129538 383.21659 179.961538z"></path>
</svg>
